<svg width="19" height="24" viewBox="0 0 19 24" fill="none" xmlns="http://www.w3.org/2000/svg">
<path d="M0 16C0 20.42 3.58 24 8 24C11.43 24 14.5 21.91 15.77 18.73L18.33 12.3C18.58 11.66 18.56 10.92 18.18 10.35C17.69 9.61 16.82 9.29 16 9.5L15.22 9.73C14.76 9.85 14.34 10.08 14 10.39V4.5C14 3.12 12.88 2 11.5 2C11.31 2 11.13 2 10.96 2.06C10.75 0.89 9.73 0 8.5 0C7.44 0 6.54 0.66 6.17 1.59C5.96 1.53 5.73 1.5 5.5 1.5C4.12 1.5 3 2.62 3 4V4.55C2.84 4.5 2.67 4.5 2.5 4.5C1.12 4.5 0 5.62 0 7V16ZM2 7C2 6.72 2.22 6.5 2.5 6.5C2.78 6.5 3 6.72 3 7V12H5V4C5 3.72 5.22 3.5 5.5 3.5C5.78 3.5 6 3.72 6 4V12H8V2.5C8 2.22 8.22 2 8.5 2C8.78 2 9 2.22 9 2.5V12H11V4.5C11 4.22 11.22 4 11.5 4C11.78 4 12 4.22 12 4.5V15H14L15 12.5C15.15 12.05 15.5 11.71 16 11.59L16.5 11.45L13.91 18C12.95 20.41 10.61 22 8 22C4.69 22 2 19.31 2 16V7Z" fill="white"/>
</svg>
