<svg width="22" height="22" viewBox="0 0 22 22" fill="none" xmlns="http://www.w3.org/2000/svg">
<path d="M18.5334 3.4667C16.3601 1.29336 13.2801 0.0400303 9.89344 0.386697C5.00011 0.88003 0.973443 4.85336 0.426776 9.7467C-0.306557 16.2134 4.69344 21.6667 11.0001 21.6667C15.2534 21.6667 18.9068 19.1734 20.6134 15.5867C21.0401 14.6934 20.4001 13.6667 19.4134 13.6667C18.9201 13.6667 18.4534 13.9334 18.2401 14.3734C16.7334 17.6134 13.1201 19.6667 9.17344 18.7867C6.21344 18.1334 3.82678 15.72 3.20011 12.76C2.08011 7.5867 6.01344 3.00003 11.0001 3.00003C13.2134 3.00003 15.1868 3.92003 16.6268 5.37336L14.6134 7.3867C13.7734 8.2267 14.3601 9.6667 15.5468 9.6667H20.3334C21.0668 9.6667 21.6668 9.0667 21.6668 8.33336V3.5467C21.6668 2.36003 20.2268 1.76003 19.3868 2.60003L18.5334 3.4667Z" fill="white"/>
</svg>
